<svg width="107" height="34" xmlns="http://www.w3.org/2000/svg" xmlns:xlink="http://www.w3.org/1999/xlink"><defs><path id="a" d="M0 .089h30.943v33.797H0z"/></defs><g fill="none" fill-rule="evenodd"><g transform="translate(0 .025)"><mask id="b" fill="#fff"><use xlink:href="#a"/></mask><path d="M30.505 24.109c-.167-.406-.334-.846-.5-1.218-.268-.61-.535-1.184-.769-1.725l-.033-.034A355.037 355.037 0 0 0 21.825 5.84l-.1-.203c-.267-.507-.534-1.049-.801-1.59-.334-.609-.668-1.252-1.202-1.86C18.654.832 17.118.088 15.482.088c-1.67 0-3.172.744-4.273 2.03-.501.609-.868 1.252-1.202 1.86-.267.542-.534 1.083-.801 1.59l-.1.204C6.535 10.847 4.03 15.989 1.728 21.064l-.034.068c-.233.541-.5 1.116-.768 1.725a22.57 22.57 0 0 0-.5 1.218c-.434 1.252-.568 2.436-.4 3.654.366 2.537 2.036 4.668 4.339 5.616.868.372 1.77.541 2.704.541a8.743 8.743 0 0 0 4.206-1.218c1.37-.778 2.671-1.895 4.14-3.518 1.47 1.623 2.805 2.74 4.14 3.518a8.743 8.743 0 0 0 4.206 1.218c.935 0 1.87-.17 2.704-.541 2.337-.948 3.973-3.113 4.34-5.616.267-1.184.134-2.368-.3-3.62m-15.056 1.759c-1.803-2.3-2.972-4.466-3.372-6.292-.167-.779-.2-1.455-.1-2.064a3.31 3.31 0 0 1 .534-1.421c.634-.913 1.702-1.489 2.938-1.489 1.235 0 2.336.542 2.937 1.489.268.406.468.88.535 1.42.1.61.066 1.32-.1 2.065-.401 1.792-1.57 3.958-3.372 6.292m13.32 1.59a5.017 5.017 0 0 1-3.038 3.958c-.801.339-1.67.44-2.537.339-.835-.102-1.67-.373-2.537-.88-1.202-.677-2.404-1.725-3.806-3.282 2.203-2.74 3.539-5.243 4.04-7.476a8.59 8.59 0 0 0 .166-2.876 5.53 5.53 0 0 0-.901-2.3c-1.035-1.523-2.771-2.402-4.707-2.402-1.937 0-3.673.913-4.708 2.402a5.53 5.53 0 0 0-.9 2.3c-.135.88-.101 1.86.166 2.876.5 2.233 1.87 4.77 4.04 7.51-1.37 1.556-2.605 2.605-3.806 3.282-.868.507-1.703.778-2.538.88a5.274 5.274 0 0 1-2.537-.339 5.017 5.017 0 0 1-3.038-3.958 5.668 5.668 0 0 1 .3-2.639c.1-.338.268-.677.435-1.082.233-.542.5-1.117.768-1.692l.033-.068a371.849 371.849 0 0 1 7.345-15.19l.1-.203c.267-.507.534-1.048.8-1.556.268-.541.568-1.049.936-1.489.7-.811 1.635-1.251 2.67-1.251s1.97.44 2.671 1.251c.367.44.668.948.935 1.49.267.507.534 1.048.801 1.555l.1.203a451.378 451.378 0 0 1 7.311 15.224v.034c.268.541.501 1.15.768 1.692.167.405.334.744.434 1.082.267.88.368 1.725.234 2.605" fill="#E9535B" mask="url(#b)"/></g><path d="M56.314 9.604c0 1.218-.97 2.199-2.173 2.199a2.182 2.182 0 0 1-2.173-2.2c0-1.217.936-2.198 2.173-2.198 1.237.033 2.173 1.015 2.173 2.199zm-8.96 4.431v.542s-1.036-1.354-3.243-1.354c-3.644 0-6.486 2.808-6.486 6.699 0 3.857 2.809 6.698 6.486 6.698 2.24 0 3.243-1.387 3.243-1.387v.576c0 .27.2.473.468.473h2.708v-12.72h-2.708a.481.481 0 0 0-.468.473zm0 8.154c-.501.744-1.504 1.387-2.708 1.387-2.14 0-3.778-1.354-3.778-3.654s1.639-3.654 3.778-3.654c1.17 0 2.24.677 2.708 1.387v4.534zm5.182 4.093h3.21v-12.72h-3.21v12.72zm47.942-13.059c-2.206 0-3.243 1.354-3.243 1.354V7.438h-3.21v18.844h2.709a.481.481 0 0 0 .468-.473v-.576s1.036 1.387 3.243 1.387c3.644 0 6.486-2.841 6.486-6.698s-2.842-6.699-6.453-6.699zm-.535 10.319c-1.237 0-2.206-.643-2.708-1.387v-4.533c.502-.677 1.572-1.388 2.708-1.388 2.14 0 3.778 1.354 3.778 3.654s-1.638 3.654-3.778 3.654zm-7.589-4.804v7.578h-3.21V19.11c0-2.097-.668-2.943-2.473-2.943-.97 0-1.973.507-2.608 1.251v8.864h-3.21v-12.72h2.541c.268 0 .468.237.468.473v.542c.937-.981 2.174-1.354 3.41-1.354 1.405 0 2.575.406 3.51 1.218 1.137.948 1.572 2.166 1.572 4.297zm-19.29-5.515c-2.207 0-3.243 1.354-3.243 1.354V7.438h-3.21v18.844h2.708a.481.481 0 0 0 .468-.473v-.576s1.037 1.387 3.243 1.387c3.644 0 6.486-2.841 6.486-6.698.034-3.857-2.808-6.699-6.452-6.699zm-.535 10.319c-1.237 0-2.207-.643-2.708-1.387v-4.533c.501-.677 1.571-1.388 2.708-1.388 2.14 0 3.778 1.354 3.778 3.654s-1.639 3.654-3.778 3.654zm-8.693-10.319c.97 0 1.471.17 1.471.17v3.01s-2.674-.913-4.346 1.015v8.898h-3.21V13.562h2.709c.267 0 .468.237.468.473v.542c.602-.71 1.905-1.354 2.908-1.354z" fill="#E9535B"/></g></svg>