<svg width="173" height="24" xmlns="http://www.w3.org/2000/svg" xmlns:xlink="http://www.w3.org/1999/xlink"><defs><path id="a" d="M0 .09h23.996v23.798H0z"/><path id="c" d="M.088.104h141.213V18.78H.088z"/></defs><g fill="none" fill-rule="evenodd"><g transform="translate(0 .022)"><mask id="b" fill="#fff"><use xlink:href="#a"/></mask><path d="M11.998.09C5.373.09 0 5.47 0 11.99c0 6.518 5.373 11.898 11.998 11.898 6.625 0 11.998-5.38 11.998-11.899C23.996 5.471 18.623.09 11.998.09M10.12 23.733v-2.328c0-.828-.521-1.604-1.304-1.914-2.921-1.242-5.008-4.139-5.008-7.502 0-4.449 3.652-8.122 8.19-8.122 4.539 0 8.19 3.673 8.19 8.122 0 5.277-4.12 10.244-10.068 11.744" fill="#00C9FF" mask="url(#b)"/></g><g transform="translate(31.628 1.25)"><mask id="d" fill="#fff"><use xlink:href="#c"/></mask><path d="M5.41 5.588c2.868 0 4.329 1.241 4.329 3.673v8.795c0 .259-.104.362-.365.362h-.522c-.26 0-.365-.103-.417-.362L8.33 16.97c-1.409 1.138-2.922 1.707-4.487 1.707-1.147 0-2.086-.31-2.712-.983-.73-.62-1.044-1.5-1.044-2.587 0-1.19.418-2.173 1.252-2.845.835-.673 1.983-1.035 3.391-1.035.522 0 1.096.052 1.774.155.626.104 1.252.259 1.826.414v-2.07c0-.982-.261-1.707-.73-2.172-.47-.414-1.305-.673-2.4-.673-1.044 0-2.14.155-3.287.518a1.775 1.775 0 0 0-.417.155c-.105.051-.209.051-.261.051-.209 0-.313-.103-.313-.31v-.414c0-.259.104-.414.313-.517.626-.259 1.304-.414 2.034-.57.73-.155 1.461-.206 2.14-.206zm-.366 6.829c-2.347 0-3.495.88-3.495 2.69 0 1.552.835 2.328 2.452 2.328.626 0 1.304-.103 2.034-.362.73-.259 1.461-.62 2.243-1.086v-3.105a11.92 11.92 0 0 0-3.234-.465zm22.484-6.83c1.147 0 2.034.311 2.608.932.574.62.887 1.552.887 2.794v8.691c0 .259-.105.362-.365.362h-.679c-.26 0-.365-.103-.365-.362v-8.07c0-1.087-.208-1.863-.574-2.38-.365-.466-.99-.725-1.825-.725-1.617 0-3.13.518-4.539 1.553.052.413.052.776.052 1.19v8.432c0 .259-.104.362-.365.362h-.678c-.26 0-.365-.103-.365-.362v-8.07c0-1.087-.209-1.863-.574-2.38-.365-.466-.991-.725-1.826-.725-1.565 0-3.025.518-4.434 1.5v9.675c0 .259-.104.362-.365.362h-.678c-.261 0-.365-.103-.365-.362V6.312c0-.259.104-.362.365-.362h.522c.26 0 .417.103.417.362l.104.983a8.698 8.698 0 0 1 2.348-1.293c.834-.31 1.617-.466 2.4-.466 1.564 0 2.608.62 3.13 1.914a10.151 10.151 0 0 1 2.503-1.448c.94-.259 1.774-.414 2.66-.414zm11.372 0c2.869 0 4.33 1.242 4.33 3.674v8.795c0 .259-.105.362-.366.362h-.521c-.261 0-.365-.103-.418-.362l-.104-1.086c-1.408 1.138-2.921 1.707-4.486 1.707-1.148 0-2.087-.31-2.713-.983-.678-.673-.991-1.5-.991-2.639 0-1.19.417-2.173 1.252-2.845.835-.673 1.982-1.035 3.39-1.035.522 0 1.096.052 1.774.155.626.104 1.252.26 1.826.414v-2.07c0-.982-.26-1.706-.73-2.172-.47-.414-1.304-.673-2.4-.673-1.043 0-2.139.156-3.286.518-.209.052-.313.103-.417.155-.105.052-.21.052-.261.052-.209 0-.313-.104-.313-.31v-.415c0-.258.104-.413.313-.517.626-.259 1.304-.414 2.034-.569a14.162 14.162 0 0 1 2.087-.155zm-.313 6.83c-2.348 0-3.495.88-3.495 2.69 0 1.552.834 2.328 2.452 2.328a6.05 6.05 0 0 0 2.034-.362c.73-.259 1.46-.62 2.243-1.086v-3.105c-1.148-.31-2.243-.465-3.234-.465zm16.589 5.122v.517c0 .259-.105.362-.366.362h-8.816c-.26 0-.365-.103-.365-.362v-.517c0-.156 0-.31.052-.414.052-.104.105-.207.261-.362l7.616-9.571h-7.25c-.261 0-.366-.104-.366-.363v-.517c0-.259.105-.362.365-.362h8.503c.261 0 .366.103.366.362v.517c0 .156 0 .26-.053.363-.052.103-.104.258-.26.413l-7.617 9.572h7.617c.208 0 .313.103.313.362zm7.355 1.241c-1.826 0-3.234-.569-4.278-1.707-1.043-1.138-1.512-2.794-1.512-4.915 0-2.12.521-3.725 1.512-4.863 1.044-1.138 2.452-1.707 4.278-1.707 1.826 0 3.234.569 4.278 1.707 1.043 1.138 1.512 2.742 1.512 4.863 0 2.121-.521 3.725-1.512 4.915-1.044 1.138-2.452 1.707-4.278 1.707zm0-1.293c2.87 0 4.33-1.759 4.33-5.329 0-3.518-1.46-5.329-4.33-5.329s-4.33 1.76-4.33 5.33c0 3.569 1.46 5.328 4.33 5.328zm15.128-11.9c1.252 0 2.191.311 2.817.932.626.62.939 1.552.939 2.794v8.691c0 .259-.104.362-.365.362h-.678c-.261 0-.365-.103-.365-.362v-8.07c0-1.087-.21-1.863-.626-2.38-.418-.466-1.096-.725-1.983-.725s-1.721.156-2.504.414c-.782.259-1.565.673-2.347 1.19v9.571c0 .259-.105.362-.365.362h-.678c-.261 0-.366-.103-.366-.362V6.312c0-.259.105-.362.366-.362h.521c.261 0 .417.103.417.362l.105 1.087c.782-.57 1.67-1.035 2.556-1.346a7.423 7.423 0 0 1 2.556-.465zm17.684 0c2.87 0 4.33 1.242 4.33 3.674v8.795c0 .259-.104.362-.365.362h-.522c-.26 0-.365-.103-.417-.362l-.104-1.086c-1.409 1.138-2.922 1.707-4.487 1.707-1.147 0-2.086-.31-2.712-.983-.678-.673-.991-1.5-.991-2.639 0-1.19.417-2.173 1.252-2.845.834-.673 1.982-1.035 3.39-1.035.522 0 1.096.052 1.774.155.626.104 1.252.26 1.826.414v-2.07c0-.982-.261-1.706-.73-2.172-.47-.414-1.305-.673-2.4-.673-1.043 0-2.139.156-3.287.518-.208.052-.313.103-.417.155-.104.052-.209.052-.26.052-.21 0-.314-.104-.314-.31v-.415c0-.258.105-.413.313-.517.626-.259 1.304-.414 2.035-.569a14.16 14.16 0 0 1 2.086-.155zm-.365 6.83c-2.347 0-3.495.88-3.495 2.69 0 1.552.835 2.328 2.452 2.328a6.05 6.05 0 0 0 2.034-.362c.73-.259 1.461-.62 2.243-1.086v-3.105a11.921 11.921 0 0 0-3.234-.465zM102.96.466c0-.259.104-.362.365-.362h.678c.26 0 .365.103.365.362v15.831c0 .362.052.62.209.776.156.155.417.207.782.207h.626c.209 0 .365.103.365.362v.466c0 .207-.104.31-.313.362-.104.052-.26.052-.417.052h-.522c-.678 0-1.2-.207-1.565-.57-.365-.362-.573-.93-.573-1.603V.466zm13.823 16.607c.21-.052.366-.103.47-.155.104-.052.209-.052.26-.052.21 0 .314.104.314.31v.363c0 .258-.105.413-.261.517-1.2.517-2.452.724-3.808.724-1.93 0-3.39-.569-4.382-1.655-.991-1.087-1.513-2.69-1.513-4.812 0-1.034.157-1.965.417-2.793a6.37 6.37 0 0 1 1.148-2.121 5.423 5.423 0 0 1 1.878-1.346c.73-.31 1.565-.465 2.452-.465 1.46 0 2.556.31 3.338.983.783.672 1.2 1.604 1.2 2.794s-.417 2.017-1.252 2.586c-.834.57-2.138.828-3.912.828-.626 0-1.252-.052-1.93-.103-.626-.052-1.304-.207-1.93-.363 0 1.76.365 3.105 1.147 3.932.783.828 1.878 1.294 3.391 1.294.991-.052 1.982-.156 2.973-.466zM113.601 6.83c-1.252 0-2.243.363-2.973 1.087s-1.148 1.81-1.304 3.208c.626.155 1.304.31 1.93.362.626.103 1.304.103 1.93.103 1.252 0 2.191-.207 2.765-.569.574-.362.887-.931.887-1.759 0-1.604-1.096-2.432-3.235-2.432zm11.425 6.105l-3.6 5.225a.58.58 0 0 1-.521.26h-.679c-.208 0-.313-.104-.313-.26 0-.051.053-.155.157-.31l4.278-5.898-3.913-5.38c-.104-.155-.156-.259-.156-.31 0-.208.104-.26.313-.26h.782c.209 0 .417.104.522.26l3.286 4.604 3.234-4.656a.58.58 0 0 1 .522-.26h.678c.209 0 .313.104.313.26 0 .051-.052.155-.156.31l-3.86 5.277 4.277 6.001c.104.155.157.259.157.31 0 .208-.105.26-.313.26h-.783c-.208 0-.365-.104-.522-.26l-3.703-5.173zm11.946-7.346c2.869 0 4.33 1.241 4.33 3.673v8.795c0 .259-.105.362-.366.362h-.521c-.261 0-.365-.103-.418-.362l-.104-1.086c-1.408 1.138-2.921 1.707-4.486 1.707-1.148 0-2.087-.31-2.713-.983-.678-.673-.991-1.5-.991-2.639 0-1.19.417-2.173 1.252-2.845.835-.673 1.982-1.035 3.39-1.035.522 0 1.096.052 1.774.155.626.104 1.252.26 1.826.414v-2.07c0-.982-.26-1.706-.73-2.172-.47-.414-1.304-.673-2.4-.673-1.043 0-2.139.156-3.286.518-.209.052-.313.103-.418.155-.104.052-.208.052-.26.052-.209 0-.313-.104-.313-.31v-.415c0-.258.104-.413.313-.517.626-.259 1.304-.414 2.034-.569a13.647 13.647 0 0 1 2.087-.155zm-.365 6.829c-2.348 0-3.496.88-3.496 2.69 0 1.552.835 2.328 2.452 2.328a6.05 6.05 0 0 0 2.035-.362c.73-.259 1.46-.62 2.243-1.086v-3.105c-1.148-.31-2.191-.465-3.234-.465z" fill="#000" mask="url(#d)"/></g></g></svg>