<svg xmlns="http://www.w3.org/2000/svg" width="95.25" height="59.163" viewBox="0 0 95.25 59.163">
  <g id="Gruppe_123" data-name="Gruppe 123" transform="translate(-55.322 -41.379)">
    <path id="Pfad_1557" data-name="Pfad 1557" d="M62.274,77.92a7.024,7.024,0,0,1-5.06-1.806,7.048,7.048,0,0,1,.422-10.029,9.411,9.411,0,0,1,6.242-1.941A24.046,24.046,0,0,1,69.5,64.9V61.959A4.4,4.4,0,0,0,68.4,58.571a5.576,5.576,0,0,0-3.722-.981,20.773,20.773,0,0,0-6.021.892,6.4,6.4,0,0,1-1.291.313c-.356,0-.532-.269-.532-.8v-1.2a1.16,1.16,0,0,1,.889-1.337,14.916,14.916,0,0,1,3.5-1,23.924,23.924,0,0,1,4.212-.38q4.236,0,6.241,1.762t2,5.37V76.45a.786.786,0,0,1-.892.889H70.879a.9.9,0,0,1-.982-.845l-.221-1.473a12.178,12.178,0,0,1-3.545,2.139,10.521,10.521,0,0,1-3.857.76m1.07-3.345a8.983,8.983,0,0,0,3.078-.581A11.465,11.465,0,0,0,69.5,72.3v-4.55a20.364,20.364,0,0,0-4.727-.579q-5.033,0-5.035,3.88a3.483,3.483,0,0,0,.936,2.61,3.678,3.678,0,0,0,2.675.912" transform="translate(0 -2.97)" fill="#05a0d1"/>
    <path id="Pfad_1558" data-name="Pfad 1558" d="M91,74.593a4.652,4.652,0,0,1-3.612-1.361,5.548,5.548,0,0,1-1.245-3.9V42.274a.788.788,0,0,1,.889-.895h2.629a.789.789,0,0,1,.892.895V69.064a2.176,2.176,0,0,0,.426,1.493,1.8,1.8,0,0,0,1.4.471,3.463,3.463,0,0,0,.558-.049,3.372,3.372,0,0,1,.515-.041.684.684,0,0,1,.6.22,1.159,1.159,0,0,1,.157.672v1.424a1.068,1.068,0,0,1-.2.691,1.311,1.311,0,0,1-.689.382A10.046,10.046,0,0,1,91,74.593" transform="translate(-7.213 0)" fill="#05a0d1"/>
    <path id="Pfad_1559" data-name="Pfad 1559" d="M110.592,78.007q-5.438,0-8.225-3.011t-2.783-8.981q0-5.657,2.852-8.805t8.023-3.143a9.336,9.336,0,0,1,6.13,1.829,6.241,6.241,0,0,1,2.208,5.082,5.621,5.621,0,0,1-2.405,4.9q-2.412,1.7-6.959,1.7a16.762,16.762,0,0,1-5.57-.846q.09,4.1,1.849,5.929t5.55,1.825a15.8,15.8,0,0,0,5.215-.892,2.922,2.922,0,0,1,.805-.178c.383,0,.579.269.579.8v1.251a1.589,1.589,0,0,1-.157.823,1.741,1.741,0,0,1-.738.51,12.012,12.012,0,0,1-2.939.893,18.772,18.772,0,0,1-3.435.313M109.032,64.5a7.908,7.908,0,0,0,4.168-.849,2.941,2.941,0,0,0,1.317-2.673,3.2,3.2,0,0,0-1.138-2.652,5.057,5.057,0,0,0-3.233-.916q-5.661,0-6.241,6.288a16.138,16.138,0,0,0,5.127.8" transform="translate(-10.359 -2.97)" fill="#05a0d1"/>
    <path id="Pfad_1560" data-name="Pfad 1560" d="M128.064,77.544a.7.7,0,0,1-.489-.157.481.481,0,0,1-.179-.378,2.17,2.17,0,0,1,.536-1.07l7.042-9.984-6.6-9.408a2.181,2.181,0,0,1-.535-1.07c0-.359.224-.534.67-.534h2.675a1.9,1.9,0,0,1,.848.156,1.361,1.361,0,0,1,.534.511l4.905,7.224,4.858-7.224a1.327,1.327,0,0,1,.557-.511,2.042,2.042,0,0,1,.867-.156h2.409c.445,0,.67.175.67.534a2.175,2.175,0,0,1-.534,1.07l-6.554,9.137,7.133,10.255a2.455,2.455,0,0,1,.534,1.07.475.475,0,0,1-.18.378.7.7,0,0,1-.489.157h-2.719a1.854,1.854,0,0,1-.846-.157,1.3,1.3,0,0,1-.536-.51l-5.394-7.98-5.3,7.98a1.282,1.282,0,0,1-.558.51,2,2,0,0,1-.867.157Z" transform="translate(-16.869 -3.175)" fill="#05a0d1"/>
    <path id="Pfad_1561" data-name="Pfad 1561" d="M162.654,77.92a7.023,7.023,0,0,1-5.058-1.806,7.047,7.047,0,0,1,.421-10.029,9.419,9.419,0,0,1,6.242-1.941,24.031,24.031,0,0,1,5.617.758V61.959a4.4,4.4,0,0,0-1.091-3.388,5.571,5.571,0,0,0-3.723-.981,20.792,20.792,0,0,0-6.021.892,6.4,6.4,0,0,1-1.291.313c-.356,0-.532-.269-.532-.8v-1.2a1.16,1.16,0,0,1,.889-1.337,14.96,14.96,0,0,1,3.5-1,23.924,23.924,0,0,1,4.212-.38q4.236,0,6.241,1.762t2.006,5.37V76.45a.787.787,0,0,1-.892.889h-1.916a.9.9,0,0,1-.982-.845l-.221-1.473a12.157,12.157,0,0,1-3.545,2.139,10.521,10.521,0,0,1-3.857.76m1.07-3.345a8.97,8.97,0,0,0,3.078-.581,11.464,11.464,0,0,0,3.074-1.693v-4.55a20.359,20.359,0,0,0-4.724-.579q-5.037,0-5.038,3.88a3.483,3.483,0,0,0,.936,2.61,3.678,3.678,0,0,0,2.675.912" transform="translate(-23.494 -2.97)" fill="#05a0d1"/>
    <path id="Pfad_1562" data-name="Pfad 1562" d="M140.037,102.193c-9.641,7.117-23.618,10.9-35.657,10.9A64.529,64.529,0,0,1,60.825,96.476c-.9-.813-.1-1.928.989-1.3a87.677,87.677,0,0,0,43.581,11.565,86.694,86.694,0,0,0,33.237-6.8c1.631-.691,3,1.074,1.4,2.253" transform="translate(-1.197 -12.549)" fill="#05a0d1"/>
    <path id="Pfad_1563" data-name="Pfad 1563" d="M165.913,97.083c-1.233-1.579-8.151-.749-11.26-.376-.942.115-1.088-.709-.237-1.307,5.518-3.873,14.561-2.756,15.613-1.455s-.28,10.373-5.451,14.7c-.793.666-1.553.31-1.2-.571,1.167-2.9,3.769-9.413,2.538-10.991" transform="translate(-23.062 -12.019)" fill="#05a0d1"/>
  </g>
</svg>
