<svg width="175" height="36" xmlns="http://www.w3.org/2000/svg" xmlns:xlink="http://www.w3.org/1999/xlink"><defs><path id="a" d="M0 .048h21.043v20.875H0z"/></defs><g fill="none" fill-rule="evenodd"><path fill="#8c8e90" d="M62.35 14.59h-1.594l-2.068-6.323-2.05 6.323H55.06l-2.678-8.24h1.627l1.848 6.222h.016l2.052-6.222h1.61l2.051 6.222h.017l1.83-6.222h1.594z"/><g fill="#8c8e90"><path d="M66.316 7.334c.803-.835 1.825-1.253 3.069-1.253 1.243 0 2.265.418 3.068 1.253.802.835 1.203 1.88 1.203 3.136 0 1.256-.401 2.301-1.203 3.136-.803.836-1.825 1.253-3.068 1.253-1.244 0-2.266-.417-3.069-1.253-.802-.835-1.203-1.88-1.203-3.136 0-1.255.4-2.3 1.203-3.136m1.162 5.297c.536.544 1.172.816 1.907.816.734 0 1.37-.272 1.907-.816.536-.544.805-1.264.805-2.16 0-.897-.269-1.618-.805-2.162-.537-.543-1.173-.815-1.907-.815-.735 0-1.37.272-1.907.815-.537.544-.806 1.265-.806 2.161 0 .897.269 1.617.806 2.161M76.182 14.59h-1.56V6.35h1.492v1.346h.068c.158-.449.483-.819.975-1.11.491-.292.969-.437 1.432-.437.463 0 .853.067 1.17.201l-.594 1.447c-.203-.079-.48-.118-.83-.118-.565 0-1.065.221-1.5.664-.435.443-.653 1.023-.653 1.74v4.507z"/></g><path fill="#8c8e90" d="M82.132 2.55v7.416l3.593-3.616h2v.068l-3.237 3.211 3.39 4.894v.067h-1.881l-2.611-3.884-1.254 1.244v2.64h-1.56V2.55z"/><path d="M91.387 14.86c-.927 0-1.693-.225-2.297-.673a3.983 3.983 0 0 1-1.33-1.682l1.39-.572c.44 1.032 1.191 1.547 2.254 1.547.486 0 .884-.106 1.195-.32.31-.212.466-.492.466-.84 0-.538-.379-.902-1.136-1.093l-1.678-.404a4.003 4.003 0 0 1-1.509-.765c-.474-.375-.712-.883-.712-1.522 0-.728.325-1.32.975-1.774.65-.454 1.421-.68 2.314-.68.734 0 1.39.165 1.966.495.577.331.989.805 1.238 1.421l-1.356.555c-.305-.728-.938-1.093-1.899-1.093-.463 0-.853.096-1.17.286-.316.19-.474.449-.474.774 0 .47.367.79 1.102.958l1.644.387c.78.18 1.356.488 1.729.925.373.437.56.93.56 1.48 0 .74-.306 1.356-.916 1.85-.61.493-1.396.74-2.356.74M108.253 14.59h-1.594l-2.068-6.323-2.05 6.323h-1.577l-2.679-8.24h1.628l1.847 6.222h.017l2.052-6.222h1.61l2.05 6.222h.018l1.83-6.222h1.594z" fill="#8c8e90"/><g fill="#8c8e90"><path d="M113.355 4.282c-.215.213-.475.32-.78.32-.305 0-.565-.107-.78-.32a1.049 1.049 0 0 1-.322-.774c0-.302.108-.56.322-.773.215-.213.475-.32.78-.32.305 0 .565.107.78.32.215.213.322.47.322.773 0 .303-.107.561-.322.774zm-1.56 10.308h1.56V6.35h-1.56v8.24zM118.61 14.725c-.87 0-1.534-.23-1.992-.69-.458-.46-.686-1.11-.686-1.95V7.763h-1.458V6.35h1.458V3.828h1.559V6.35h2.034v1.413h-2.034v4.204c0 .897.373 1.345 1.119 1.345.282 0 .52-.044.712-.134l.542 1.328c-.339.146-.757.219-1.254.219M122.373 2.55v3.8l-.068 1.144h.068c.225-.393.581-.726 1.067-1A3.12 3.12 0 0 1 125 6.08c1.028 0 1.814.314 2.356.942.543.628.814 1.469.814 2.522v5.045h-1.56V9.78c0-1.524-.684-2.286-2.05-2.286-.645 0-1.17.255-1.577.765a2.763 2.763 0 0 0-.61 1.774v4.557h-1.56V2.55h1.56zM136.747 14.725c-.87 0-1.534-.23-1.992-.69-.458-.46-.687-1.11-.687-1.95V7.763h-1.457V6.35h1.457V3.828h1.56V6.35h2.034v1.413h-2.034v4.204c0 .897.373 1.345 1.119 1.345.282 0 .52-.044.712-.134l.542 1.328c-.339.146-.757.219-1.254.219M140.51 2.55v3.8l-.068 1.144h.068c.226-.393.582-.726 1.067-1a3.12 3.12 0 0 1 1.56-.413c1.028 0 1.814.314 2.356.942.543.628.814 1.469.814 2.522v5.045h-1.56V9.78c0-1.524-.684-2.286-2.05-2.286-.645 0-1.17.255-1.577.765a2.763 2.763 0 0 0-.61 1.774v4.557h-1.56V2.55h1.56zM151.612 14.86c-1.254 0-2.274-.415-3.06-1.245-.785-.83-1.177-1.878-1.177-3.145 0-1.2.381-2.23 1.144-3.094.763-.863 1.737-1.295 2.924-1.295 1.232 0 2.218.398 2.958 1.194.74.796 1.11 1.861 1.11 3.195l-.017.286h-6.56c.045.83.325 1.486.84 1.968a2.555 2.555 0 0 0 1.805.723c1.118 0 1.875-.471 2.27-1.413l1.391.572c-.271.639-.718 1.174-1.34 1.606-.62.431-1.384.647-2.288.647zm2.238-5.382c-.034-.47-.252-.919-.653-1.345-.4-.426-.997-.64-1.788-.64a2.25 2.25 0 0 0-1.5.539c-.424.359-.715.84-.873 1.446h4.814z"/></g><path d="M110.386 31.552l4.577-12.041h1.763l4.576 12.04h-1.729l-1.17-3.262h-5.102l-1.186 3.263h-1.729zm3.44-4.71h4.035l-1.983-5.43h-.068l-1.983 5.43z" fill="#8c8e90"/><g fill="#8c8e90"><path d="M125.252 31.82c-.927 0-1.692-.224-2.297-.672a3.982 3.982 0 0 1-1.33-1.682l1.39-.571c.44 1.031 1.192 1.547 2.254 1.547.486 0 .884-.107 1.195-.32.31-.213.466-.493.466-.84 0-.539-.379-.903-1.136-1.094l-1.678-.403a4.003 4.003 0 0 1-1.508-.766c-.475-.375-.712-.882-.712-1.521 0-.729.325-1.32.974-1.774.65-.454 1.421-.682 2.314-.682.735 0 1.39.166 1.967.497.576.33.988.804 1.237 1.42l-1.356.555c-.305-.728-.938-1.093-1.899-1.093-.463 0-.853.096-1.17.286-.316.191-.474.449-.474.774 0 .47.367.79 1.102.958l1.644.387c.78.18 1.356.488 1.73.925.372.437.559.93.559 1.48 0 .74-.306 1.356-.916 1.85-.61.493-1.395.74-2.356.74M132.676 31.82c-.926 0-1.692-.224-2.296-.672a3.983 3.983 0 0 1-1.331-1.682l1.39-.571c.44 1.031 1.192 1.547 2.254 1.547.486 0 .884-.107 1.195-.32.311-.213.467-.493.467-.84 0-.539-.38-.903-1.136-1.094l-1.678-.403a4.004 4.004 0 0 1-1.509-.766c-.475-.375-.712-.882-.712-1.521 0-.729.325-1.32.975-1.774.65-.454 1.42-.682 2.314-.682.734 0 1.39.166 1.966.497.576.33.989.804 1.237 1.42l-1.356.555c-.305-.728-.938-1.093-1.898-1.093-.464 0-.854.096-1.17.286-.316.191-.475.449-.475.774 0 .47.368.79 1.102.958l1.644.387c.78.18 1.357.488 1.73.925.373.437.559.93.559 1.48 0 .74-.305 1.356-.915 1.85-.61.493-1.396.74-2.357.74M138.626 21.243c-.215.213-.474.32-.78.32-.305 0-.565-.107-.78-.32a1.049 1.049 0 0 1-.322-.773c0-.303.108-.56.323-.774.214-.213.474-.32.78-.32.305 0 .564.107.78.32.214.213.321.47.321.774 0 .302-.107.56-.322.773zm-1.56 10.308h1.56v-8.24h-1.56v8.24zM143.457 31.82c-.927 0-1.692-.224-2.297-.672a3.982 3.982 0 0 1-1.33-1.682l1.39-.571c.44 1.031 1.192 1.547 2.254 1.547.486 0 .884-.107 1.195-.32.31-.213.466-.493.466-.84 0-.539-.379-.903-1.136-1.094l-1.678-.403a4.004 4.004 0 0 1-1.508-.766c-.475-.375-.712-.882-.712-1.521 0-.729.325-1.32.974-1.774.65-.454 1.421-.682 2.314-.682.735 0 1.39.166 1.967.497.576.33.988.804 1.237 1.42l-1.356.555c-.305-.728-.938-1.093-1.899-1.093-.463 0-.853.096-1.17.286-.316.191-.474.449-.474.774 0 .47.367.79 1.102.958l1.644.387c.78.18 1.356.488 1.73.925.372.437.559.93.559 1.48 0 .74-.306 1.356-.916 1.85-.61.493-1.396.74-2.356.74M151.305 31.686c-.87 0-1.534-.23-1.991-.69-.458-.459-.687-1.11-.687-1.95v-4.322h-1.458v-1.412h1.458v-2.523h1.56v2.523h2.034v1.412h-2.034v4.204c0 .897.373 1.345 1.118 1.345.283 0 .52-.044.712-.134l.543 1.328c-.34.146-.757.219-1.255.219M155.882 31.82c-.881 0-1.619-.252-2.212-.756-.593-.505-.89-1.172-.89-2.001 0-.897.35-1.6 1.051-2.11.7-.51 1.565-.766 2.593-.766.916 0 1.667.168 2.255.505v-.236c0-.605-.21-1.09-.627-1.454-.418-.365-.933-.547-1.543-.547-.452 0-.862.107-1.229.32a1.65 1.65 0 0 0-.754.874l-1.424-.605c.192-.494.57-.95 1.136-1.37.565-.421 1.31-.632 2.237-.632 1.062 0 1.944.309 2.645.925.7.617 1.05 1.486 1.05 2.607v4.978h-1.491v-1.144h-.068c-.621.942-1.531 1.413-2.729 1.413m.254-1.413c.644 0 1.23-.238 1.755-.715.525-.476.788-1.04.788-1.69-.44-.358-1.102-.538-1.983-.538-.758 0-1.328.163-1.712.488-.385.325-.577.706-.577 1.143 0 .404.175.723.526.959.35.235.751.353 1.203.353M163.137 23.312v1.143h.068c.226-.392.582-.726 1.068-1a3.12 3.12 0 0 1 1.56-.412c1.028 0 1.813.313 2.356.941.542.628.813 1.469.813 2.523v5.045h-1.56v-4.81c0-1.524-.683-2.287-2.05-2.287-.645 0-1.17.255-1.577.765a2.763 2.763 0 0 0-.61 1.774v4.558h-1.56v-8.24h1.492zM173.715 31.686c-.87 0-1.534-.23-1.992-.69-.458-.459-.687-1.11-.687-1.95v-4.322h-1.457v-1.412h1.457v-2.523h1.56v2.523h2.034v1.412h-2.034v4.204c0 .897.373 1.345 1.119 1.345.282 0 .52-.044.711-.134l.543 1.328c-.34.146-.757.219-1.254.219M76.016 27.384c0 2.602-2.052 4.52-4.57 4.52-2.519 0-4.57-1.918-4.57-4.52 0-2.62 2.051-4.52 4.57-4.52 2.518 0 4.57 1.9 4.57 4.52m-2 0c0-1.626-1.19-2.738-2.57-2.738s-2.57 1.112-2.57 2.738c0 1.61 1.19 2.739 2.57 2.739s2.57-1.131 2.57-2.739M85.875 27.384c0 2.602-2.052 4.52-4.57 4.52-2.519 0-4.57-1.918-4.57-4.52 0-2.618 2.051-4.52 4.57-4.52 2.518 0 4.57 1.9 4.57 4.52m-2 0c0-1.626-1.19-2.738-2.57-2.738s-2.57 1.112-2.57 2.738c0 1.61 1.19 2.739 2.57 2.739s2.57-1.131 2.57-2.739M95.323 23.138v8.114c0 3.337-1.984 4.7-4.33 4.7-2.208 0-3.537-1.464-4.038-2.663l1.742-.719c.31.736 1.07 1.604 2.294 1.604 1.502 0 2.432-.92 2.432-2.65v-.65h-.07c-.448.549-1.31 1.028-2.399 1.028-2.278 0-4.364-1.969-4.364-4.501 0-2.551 2.086-4.536 4.364-4.536 1.087 0 1.95.479 2.4 1.01h.07v-.735h1.899v-.002zM93.565 27.4c0-1.592-1.07-2.755-2.432-2.755-1.38 0-2.537 1.163-2.537 2.755 0 1.575 1.157 2.722 2.537 2.722 1.362 0 2.432-1.147 2.432-2.722z"/></g><path fill="#8c8e90" d="M96.504 31.627h1.951V18.382h-1.95zM106.06 28.872l1.552 1.027c-.501.735-1.709 2.003-3.796 2.003-2.588 0-4.52-1.985-4.52-4.52 0-2.687 1.949-4.52 4.296-4.52 2.364 0 3.52 1.867 3.899 2.876l.207.513-6.09 2.503c.466.906 1.192 1.369 2.208 1.369 1.019 0 1.726-.497 2.243-1.251m-4.78-1.626l4.071-1.677c-.223-.565-.897-.958-1.69-.958-1.017 0-2.432.89-2.38 2.635M59.49 26.209V24.29h6.512c.064.334.097.73.097 1.158 0 1.438-.396 3.217-1.674 4.484-1.243 1.284-2.83 1.969-4.934 1.969-3.898 0-7.176-3.15-7.176-7.018 0-3.867 3.278-7.018 7.176-7.018 2.157 0 3.693.84 4.848 1.934l-1.364 1.353c-.828-.77-1.95-1.37-3.486-1.37-2.847 0-5.073 2.277-5.073 5.101s2.226 5.1 5.073 5.1c1.847 0 2.899-.735 3.572-1.404.547-.542.906-1.316 1.048-2.373l-4.62.002z"/><g transform="translate(0 .065)"><mask id="b" fill="#fff"><use xlink:href="#a"/></mask><path d="M21.043 10.485c0 5.765-4.71 10.438-10.522 10.438C4.711 20.923 0 16.25 0 10.485 0 4.721 4.71.048 10.521.048c5.811 0 10.522 4.673 10.522 10.437" fill="#4285F5" mask="url(#b)"/></g><path d="M33.026 15.769c0 2.882-2.356 5.219-5.261 5.219-2.906 0-5.26-2.337-5.26-5.22 0-2.882 2.354-5.218 5.26-5.218 2.905 0 5.26 2.336 5.26 5.219" fill="#EB4236"/><path d="M33.975 28.743c0 3.403-2.78 6.161-6.21 6.161s-6.21-2.758-6.21-6.16c0-3.403 2.78-6.162 6.21-6.162s6.21 2.759 6.21 6.161" fill="#FABD05"/><path d="M38.432 9.753a2.693 2.693 0 0 1-2.703 2.681 2.693 2.693 0 0 1-2.703-2.681 2.693 2.693 0 0 1 2.703-2.682c1.493 0 2.703 1.2 2.703 2.682" fill="#33A854"/></g></svg>