<svg xmlns="http://www.w3.org/2000/svg" width="175.383" height="37" viewBox="0 0 175.383 37">
  <g id="Gruppe_126" data-name="Gruppe 126" transform="translate(-596.685 -463.438)">
    <g id="Gruppe_124" data-name="Gruppe 124" transform="translate(596.685 463.438)">
      <path id="Pfad_1564" data-name="Pfad 1564" d="M744.009,499.42a2.775,2.775,0,1,0-2.775-2.775,2.775,2.775,0,0,0,2.775,2.775" transform="translate(-706.084 -486.47)" fill="#19a143"/>
      <path id="Pfad_1565" data-name="Pfad 1565" d="M701.138,520.185a5.55,5.55,0,1,0-5.55-5.55,5.55,5.55,0,0,0,5.55,5.55" transform="translate(-671.538 -497.985)" fill="#e92f22"/>
      <path id="Pfad_1566" data-name="Pfad 1566" d="M698.258,575.29a6.475,6.475,0,1,0-6.475-6.475,6.475,6.475,0,0,0,6.475,6.475" transform="translate(-668.658 -538.29)" fill="#fe9800"/>
      <path id="Pfad_1567" data-name="Pfad 1567" d="M607.785,485.638a11.1,11.1,0,1,0-11.1-11.1,11.1,11.1,0,0,0,11.1,11.1" transform="translate(-596.685 -463.438)" fill="#006fbb"/>
    </g>
    <g id="Gruppe_125" data-name="Gruppe 125" transform="translate(648.866 473.137)">
      <path id="Pfad_1568" data-name="Pfad 1568" d="M811.271,504.859h3.152v6.677h7.027v-6.677H824.6v16.717H821.45v-7.051h-7.027v7.051h-3.152Z" transform="translate(-811.271 -504.486)" fill="#040505"/>
      <path id="Pfad_1569" data-name="Pfad 1569" d="M878.057,534.939a5.853,5.853,0,0,1-2.23-2.253,6.8,6.8,0,0,1-.012-6.4,6.113,6.113,0,0,1,2.195-2.323,5.841,5.841,0,0,1,3.128-.864,6.087,6.087,0,0,1,3.175.794,5.178,5.178,0,0,1,2.02,2.171,6.747,6.747,0,0,1,.689,3.058,7.259,7.259,0,0,1-.07,1.027h-8.942a3.369,3.369,0,0,0,1.132,2.16,3.3,3.3,0,0,0,2.16.735,3.453,3.453,0,0,0,1.809-.455,3.365,3.365,0,0,0,1.2-1.226l2.475,1.214a5.969,5.969,0,0,1-5.533,3.175A6.309,6.309,0,0,1,878.057,534.939Zm6.024-6.957a2.365,2.365,0,0,0-.409-1.109,2.858,2.858,0,0,0-1-.911,3.021,3.021,0,0,0-1.506-.362,2.867,2.867,0,0,0-1.879.642,3.6,3.6,0,0,0-1.132,1.739Z" transform="translate(-859.52 -518.292)" fill="#040505"/>
      <path id="Pfad_1570" data-name="Pfad 1570" d="M930.352,535.985l-5.02-11.347h3.479l3.082,7.4h.187l2.965-7.4h3.409l-7.354,16.95h-3.292Z" transform="translate(-897.596 -519.455)" fill="#040505"/>
      <path id="Pfad_1571" data-name="Pfad 1571" d="M1004.621,519.654a8.72,8.72,0,0,1,0-15.2,8.9,8.9,0,0,1,4.424-1.132,9.087,9.087,0,0,1,3.584.689,8.037,8.037,0,0,1,2.79,1.949l-2.171,2.125a5.7,5.7,0,0,0-1.856-1.331,5.884,5.884,0,0,0-2.37-.444,5.727,5.727,0,0,0-2.825.712,5.279,5.279,0,0,0-2.043,2.031,5.9,5.9,0,0,0-.759,3,5.839,5.839,0,0,0,.77,3,5.342,5.342,0,0,0,2.066,2.031,5.791,5.791,0,0,0,2.837.712,5.427,5.427,0,0,0,3.829-1.378,3.916,3.916,0,0,0,.817-1.074,5.336,5.336,0,0,0,.513-1.424h-5.253v-2.685h8.195a6.094,6.094,0,0,1,.163,1.471,9.208,9.208,0,0,1-.5,3.082,6.883,6.883,0,0,1-1.529,2.5,7.414,7.414,0,0,1-2.708,1.856,9.389,9.389,0,0,1-3.549.642A8.889,8.889,0,0,1,1004.621,519.654Z" transform="translate(-954.273 -503.323)" fill="#040505"/>
      <path id="Pfad_1572" data-name="Pfad 1572" d="M1078.744,534.927a5.881,5.881,0,0,1-2.253-2.265,6.87,6.87,0,0,1,0-6.455,5.86,5.86,0,0,1,2.253-2.276,6.906,6.906,0,0,1,6.561,0,5.865,5.865,0,0,1,2.253,2.276,6.87,6.87,0,0,1,0,6.455,5.887,5.887,0,0,1-2.253,2.265,6.9,6.9,0,0,1-6.561,0Zm4.926-2.416a3.084,3.084,0,0,0,1.191-1.214,3.771,3.771,0,0,0,.444-1.868,3.722,3.722,0,0,0-.444-1.844,3.086,3.086,0,0,0-1.191-1.214,3.387,3.387,0,0,0-3.269,0,3.162,3.162,0,0,0-1.2,1.214,3.643,3.643,0,0,0-.455,1.844,3.708,3.708,0,0,0,.455,1.856,3.14,3.14,0,0,0,1.2,1.226,3.389,3.389,0,0,0,3.269,0Z" transform="translate(-1011.388 -518.292)" fill="#040505"/>
      <path id="Pfad_1573" data-name="Pfad 1573" d="M1135.389,534.927a5.884,5.884,0,0,1-2.253-2.265,6.868,6.868,0,0,1,0-6.455,5.862,5.862,0,0,1,2.253-2.276,6.907,6.907,0,0,1,6.561,0,5.865,5.865,0,0,1,2.252,2.276,6.868,6.868,0,0,1,0,6.455,5.886,5.886,0,0,1-2.252,2.265,6.905,6.905,0,0,1-6.561,0Zm4.926-2.416a3.08,3.08,0,0,0,1.191-1.214,3.772,3.772,0,0,0,.444-1.868,3.722,3.722,0,0,0-.444-1.844,3.082,3.082,0,0,0-1.191-1.214,3.386,3.386,0,0,0-3.268,0,3.162,3.162,0,0,0-1.2,1.214,3.643,3.643,0,0,0-.455,1.844,3.709,3.709,0,0,0,.455,1.856,3.14,3.14,0,0,0,1.2,1.226,3.388,3.388,0,0,0,3.268,0Z" transform="translate(-1054.259 -518.292)" fill="#040505"/>
      <path id="Pfad_1574" data-name="Pfad 1574" d="M1191.359,539.783a5.024,5.024,0,0,1-2.008-2.44l2.872-1.167a3.071,3.071,0,0,0,2.9,1.914,3.042,3.042,0,0,0,2.3-.887,3.5,3.5,0,0,0,.852-2.521v-.934h-.187a3.619,3.619,0,0,1-1.471,1.214,4.908,4.908,0,0,1-2.078.42,5.264,5.264,0,0,1-2.743-.759,5.6,5.6,0,0,1-2.043-2.148,7.17,7.17,0,0,1,0-6.467,5.6,5.6,0,0,1,2.043-2.148,5.266,5.266,0,0,1,2.743-.759,4.911,4.911,0,0,1,2.078.42,3.623,3.623,0,0,1,1.471,1.214h.187v-1.261h2.942v11.09a6.95,6.95,0,0,1-.747,3.315,5.218,5.218,0,0,1-2.125,2.16,7.351,7.351,0,0,1-6.981-.257Zm6-8.078a3.837,3.837,0,0,0,.012-4.949,3.216,3.216,0,0,0-4.424.012,3.819,3.819,0,0,0,0,4.95,3.057,3.057,0,0,0,2.218.887A3.011,3.011,0,0,0,1197.359,531.705Z" transform="translate(-1097.13 -518.292)" fill="#040505"/>
      <path id="Pfad_1575" data-name="Pfad 1575" d="M1249.176,504.859h3.059v16.717h-3.059Z" transform="translate(-1142.691 -504.486)" fill="#040505"/>
      <path id="Pfad_1576" data-name="Pfad 1576" d="M1271.605,534.939a5.853,5.853,0,0,1-2.23-2.253,6.8,6.8,0,0,1-.012-6.4,6.116,6.116,0,0,1,2.195-2.323,5.842,5.842,0,0,1,3.129-.864,6.087,6.087,0,0,1,3.175.794,5.179,5.179,0,0,1,2.02,2.171,6.745,6.745,0,0,1,.689,3.058,7.287,7.287,0,0,1-.07,1.027h-8.942a3.369,3.369,0,0,0,1.132,2.16,3.3,3.3,0,0,0,2.159.735,3.453,3.453,0,0,0,1.81-.455,3.366,3.366,0,0,0,1.2-1.226l2.475,1.214a5.969,5.969,0,0,1-5.533,3.175A6.309,6.309,0,0,1,1271.605,534.939Zm6.024-6.957a2.368,2.368,0,0,0-.409-1.109,2.862,2.862,0,0,0-1-.911,3.022,3.022,0,0,0-1.506-.362,2.866,2.866,0,0,0-1.879.642,3.6,3.6,0,0,0-1.132,1.739Z" transform="translate(-1157.369 -518.292)" fill="#040505"/>
    </g>
  </g>
</svg>
