<svg width="162" height="43" xmlns="http://www.w3.org/2000/svg"><g fill="none" fill-rule="evenodd"><path d="M149.078 1c.475 0 .958 0 1.433.004l.067.003 1.142.015c.71.021 1.64.063 2.536.225a8.132 8.132 0 0 1 2.305.768 7.55 7.55 0 0 1 1.941 1.434 7.893 7.893 0 0 1 1.418 1.966c.363.725.608 1.488.75 2.34.16.879.208 1.794.23 2.56.008.407.008.815.008 1.24.01.483.01.964.01 1.452V29.92c0 .49 0 .97-.01 1.473 0 .411 0 .818-.007 1.215-.023.778-.07 1.69-.232 2.579a8.224 8.224 0 0 1-.745 2.323 7.939 7.939 0 0 1-1.423 1.973 7.67 7.67 0 0 1-1.94 1.431 8.162 8.162 0 0 1-2.305.77c-.878.157-1.775.202-2.528.225-.405.008-.81.013-1.215.013-.477.003-.96.003-1.435.003H12.96c-.484 0-.965 0-1.454-.003-.401 0-.8-.005-1.196-.013-.763-.023-1.66-.068-2.543-.225a8.117 8.117 0 0 1-2.298-.77 7.64 7.64 0 0 1-1.946-1.438 7.663 7.663 0 0 1-1.412-1.962 8.304 8.304 0 0 1-.755-2.335c-.165-.922-.206-1.854-.223-2.571-.01-.285-.013-.57-.016-.858l-.005-.357V11.55l.005-.372c.003-.284.007-.569.016-.859.017-.71.058-1.642.225-2.57a8.153 8.153 0 0 1 .756-2.331 7.565 7.565 0 0 1 1.414-1.968 7.677 7.677 0 0 1 1.943-1.434 8.05 8.05 0 0 1 2.294-.768c.902-.162 1.832-.204 2.534-.225l1.209-.018C11.996 1 12.477 1 12.96 1h136.117z" stroke="#000" stroke-width=".5"/><path d="M48.123 30.57h-4.489l-1.077 3.189h-1.902l4.252-11.797h1.975l4.252 11.797H49.2l-1.077-3.189zm-4.024-1.47h3.558l-1.754-5.176h-.05L44.1 29.1z" fill="#000"/><g fill="#000"><path d="M60.545 29.459c0 2.673-1.428 4.39-3.583 4.39-1.224 0-2.195-.548-2.701-1.505h-.04v4.26h-1.764V25.158h1.706v1.43h.033c.489-.924 1.534-1.52 2.733-1.52 2.18 0 3.616 1.724 3.616 4.39m-1.812 0c0-1.742-.897-2.886-2.268-2.886-1.347 0-2.253 1.169-2.253 2.886 0 1.733.906 2.894 2.253 2.894 1.37 0 2.268-1.136 2.268-2.894M70.074 29.459c0 2.673-1.428 4.39-3.583 4.39-1.224 0-2.195-.548-2.701-1.505h-.041v4.26h-1.763V25.158h1.706v1.43h.032c.49-.924 1.535-1.52 2.734-1.52 2.18 0 3.616 1.724 3.616 4.39m-1.812 0c0-1.742-.898-2.886-2.269-2.886-1.346 0-2.252 1.169-2.252 2.886 0 1.733.906 2.894 2.252 2.894 1.371 0 2.27-1.136 2.27-2.894"/></g><path fill="#000" d="M71.58 33.759h1.764V21.962H71.58zM82.886 31.233c-.237 1.561-1.755 2.632-3.697 2.632-2.498 0-4.048-1.676-4.048-4.366 0-2.697 1.559-4.447 3.974-4.447 2.375 0 3.869 1.635 3.869 4.243v.605H76.92v.106c0 1.472.922 2.436 2.31 2.436.98 0 1.746-.465 1.982-1.21h1.674zm-5.958-2.567h4.293c-.04-1.316-.881-2.183-2.106-2.183-1.215 0-2.097.883-2.187 2.183zM96.51 33.759v-5.224h-6.047v5.224h-1.828V21.962h1.828v4.987h6.047v-4.987h1.829V33.76z"/><g fill="#000"><path d="M100.244 29.459c0-2.706 1.592-4.407 4.073-4.407 2.488 0 4.072 1.7 4.072 4.407 0 2.714-1.575 4.406-4.072 4.406-2.498 0-4.073-1.692-4.073-4.406m6.35 0c0-1.856-.849-2.951-2.277-2.951-1.429 0-2.277 1.103-2.277 2.95 0 1.865.848 2.952 2.277 2.952 1.428 0 2.276-1.087 2.276-2.951M109.922 25.159h1.68v1.471h.042c.383-.972 1.314-1.57 2.44-1.57 1.192 0 2.057.614 2.4 1.685h.04c.44-1.047 1.453-1.684 2.677-1.684 1.697 0 2.807 1.128 2.807 2.845v5.853h-1.77v-5.437c0-1.103-.596-1.741-1.64-1.741-1.046 0-1.772.769-1.772 1.856v5.322h-1.73v-5.56c0-.989-.628-1.618-1.624-1.618-1.044 0-1.788.81-1.788 1.921v5.257h-1.762v-8.6zM131.556 31.233c-.236 1.561-1.754 2.632-3.697 2.632-2.497 0-4.048-1.676-4.048-4.366 0-2.697 1.56-4.447 3.975-4.447 2.375 0 3.869 1.635 3.869 4.243v.605h-6.064v.106c0 1.472.922 2.436 2.31 2.436.98 0 1.746-.465 1.982-1.21h1.673zm-5.957-2.567h4.292c-.04-1.316-.88-2.183-2.105-2.183-1.216 0-2.098.883-2.187 2.183z"/></g><path fill="#000" d="M133.634 33.759V21.962h1.828v5.616h.074l4.92-5.616h2.17l-4.668 5.224 5.06 6.573h-2.268l-4.08-5.314-1.208 1.381v3.933z"/><g fill="#000"><path d="M144.464 22.894a1.01 1.01 0 0 1 1.02-1.013 1.01 1.01 0 0 1 1.028 1.013c0 .556-.457 1.006-1.028 1.006-.562 0-1.02-.45-1.02-1.006zm.138 10.865h1.764v-8.6h-1.764v8.6zM150.839 23.123v2.036h1.633v1.397h-1.633v4.742c0 .736.327 1.079 1.044 1.079.18 0 .466-.024.58-.04v1.389c-.196.049-.587.082-.98.082-1.737 0-2.414-.654-2.414-2.322v-4.93h-1.249V25.16h1.249v-2.036h1.77z"/></g><path fill="#000" d="M44.37 16.556h-.935l-2.16-7.942h1.034l1.577 6.456h.066l1.774-6.456h1l1.775 6.456h.066l1.577-6.456h1.033l-2.16 7.942h-.933l-1.824-6.27h-.066z"/><g fill="#000"><path d="M51.722 13.59c0-1.91 1.044-3.071 2.73-3.071 1.687 0 2.731 1.16 2.731 3.07 0 1.905-1.044 3.072-2.73 3.072-1.687 0-2.731-1.167-2.731-3.072m4.483 0c0-1.409-.632-2.217-1.753-2.217-1.12 0-1.752.808-1.752 2.217 0 1.404.631 2.219 1.752 2.219s1.753-.815 1.753-2.219M58.671 10.623h.902v.88h.087c.176-.578.858-.984 1.643-.984.154 0 .352.01.473.027v.947a3.798 3.798 0 0 0-.605-.055c-.901 0-1.555.605-1.555 1.442v3.676h-.945v-5.933z"/></g><path fill="#000" d="M66.62 10.623h1.159l-2.55 2.543 2.72 3.39h-1.203l-2.22-2.779-.566.529v2.25h-.945V8.267h.945v4.948h.088zM70.925 10.519c1.242 0 2.105.616 2.23 1.59h-.933c-.127-.473-.588-.787-1.302-.787-.704 0-1.253.358-1.253.886 0 .408.33.66 1.027.83l.913.221c1.115.27 1.653.754 1.653 1.607 0 1.063-1.028 1.795-2.373 1.795-1.319 0-2.225-.633-2.33-1.619h.972c.16.502.632.82 1.39.82.798 0 1.37-.38 1.37-.924 0-.407-.309-.682-.94-.836l-1.017-.248c-1.11-.27-1.616-.75-1.616-1.608 0-.985.95-1.727 2.21-1.727M83.717 16.556h-.962l-1.324-4.59h-.088l-1.319 4.59h-.956l-1.659-5.933h.956l1.165 4.744h.088l1.324-4.744h.906l1.324 4.744h.088l1.165-4.744h.951zM86.48 8.758c0-.364.297-.661.66-.661a.661.661 0 0 1 0 1.321.662.662 0 0 1-.66-.66zm.188 7.798h.945v-5.933h-.945v5.933zM90.757 9.088v1.535h1.32v.793h-1.32v3.357c0 .7.264.996.88.996.17 0 .263-.005.44-.022v.798a3.155 3.155 0 0 1-.556.055c-1.22 0-1.709-.451-1.709-1.585v-3.6h-.956v-.792h.956V9.088h.945zM93.562 8.267h.945v3.292h.088c.297-.656.917-1.04 1.824-1.04 1.253 0 2.045.803 2.045 2.196v3.841h-.946v-3.61c0-1.052-.472-1.574-1.368-1.574-1.06 0-1.643.671-1.643 1.673v3.511h-.945V8.267z"/><path d="M27.295 8.317l.974.002.33.005c.165.003.33.005.5.01.69.017 1.233.064 1.71.148.567.102 1.07.267 1.54.508a5.112 5.112 0 0 1 2.24 2.246c.238.468.404.971.506 1.543.105.576.134 1.188.149 1.708.006.275.01.547.01.823.003.33.003.658.003.984v10.34c0 .328 0 .655-.003.988 0 .275-.004.547-.01.815-.016.549-.044 1.137-.15 1.717a5.455 5.455 0 0 1-.507 1.541c-.24.479-.557.918-.936 1.3-.39.385-.829.704-1.303.945a5.457 5.457 0 0 1-1.542.506c-.603.11-1.229.138-1.725.15-.266.006-.534.012-.804.013-.327.003-.654.003-.982.003H16.973c-.328 0-.655 0-.984-.003-.268-.001-.537-.007-.82-.014-.477-.011-1.101-.038-1.711-.149a5.207 5.207 0 0 1-2.836-1.447 5.155 5.155 0 0 1-.944-1.306 5.502 5.502 0 0 1-.504-1.538 11.853 11.853 0 0 1-.15-1.72c-.008-.27-.01-.54-.01-.823-.005-.327-.005-.652-.005-.978v-10.34c0-.324 0-.65.006-.989 0-.27.001-.54.01-.815.012-.48.04-1.109.148-1.714.103-.57.268-1.074.505-1.54a5.103 5.103 0 0 1 2.245-2.247c.467-.24.969-.405 1.532-.507a11.292 11.292 0 0 1 1.718-.148c.165-.005.33-.007.497-.01l.32-.005.983-.002h10.322zm0-.663H16.973c-.33 0-.659 0-.987.002-.278.006-.557.007-.833.015-.604.015-1.212.053-1.812.159a6.043 6.043 0 0 0-1.72.569 5.78 5.78 0 0 0-2.534 2.536 6.135 6.135 0 0 0-.565 1.724 12.236 12.236 0 0 0-.159 1.813c-.009.28-.01.557-.01.833-.006.332-.006.661-.006.989v10.34c0 .33 0 .658.006.988 0 .28.001.558.01.833.016.608.053 1.216.159 1.816.11.607.286 1.17.566 1.722a5.828 5.828 0 0 0 1.066 1.474A5.884 5.884 0 0 0 13.34 35.1c.6.109 1.208.145 1.812.16.276.006.555.012.833.013.328.003.657.003.987.003h10.322c.33 0 .658 0 .988-.003.277-.001.555-.007.832-.014.603-.014 1.215-.05 1.81-.16a6.093 6.093 0 0 0 1.723-.566 5.92 5.92 0 0 0 1.468-1.065 5.796 5.796 0 0 0 1.062-1.474 6.085 6.085 0 0 0 .568-1.722c.109-.6.142-1.208.16-1.816.006-.275.01-.553.01-.833.003-.33.003-.658.003-.988v-10.34c0-.328 0-.657-.003-.989 0-.276-.004-.553-.01-.833-.018-.606-.051-1.216-.16-1.813a6.074 6.074 0 0 0-.568-1.725 5.748 5.748 0 0 0-2.53-2.535 6.05 6.05 0 0 0-1.723-.57 12.054 12.054 0 0 0-1.81-.158c-.277-.008-.555-.01-.832-.015-.33-.002-.658-.002-.988-.002z" fill="#7B7B7A"/><path d="M27.295 8.317l.974.002.33.005c.165.003.33.005.5.01.69.017 1.233.064 1.71.148.567.102 1.07.267 1.54.508a5.112 5.112 0 0 1 2.24 2.246c.238.468.404.971.506 1.543.105.576.134 1.188.149 1.708.006.275.01.547.01.823.003.33.003.658.003.984v10.34c0 .328 0 .655-.003.988 0 .275-.004.547-.01.815-.016.549-.044 1.137-.15 1.717a5.455 5.455 0 0 1-.507 1.541c-.24.479-.557.918-.936 1.3-.39.385-.829.704-1.303.945a5.457 5.457 0 0 1-1.542.506c-.603.11-1.229.138-1.725.15-.266.006-.534.012-.804.013-.327.003-.654.003-.982.003H16.973c-.328 0-.655 0-.984-.003-.268-.001-.537-.007-.82-.014-.477-.011-1.101-.038-1.711-.149a5.207 5.207 0 0 1-2.836-1.447 5.155 5.155 0 0 1-.944-1.306 5.502 5.502 0 0 1-.504-1.538 11.853 11.853 0 0 1-.15-1.72c-.008-.27-.01-.54-.01-.823-.005-.327-.005-.652-.005-.978v-10.34c0-.324 0-.65.006-.989 0-.27.001-.54.01-.815.012-.48.04-1.109.148-1.714.103-.57.268-1.074.505-1.54a5.103 5.103 0 0 1 2.245-2.247c.467-.24.969-.405 1.532-.507a11.292 11.292 0 0 1 1.718-.148c.165-.005.33-.007.497-.01l.32-.005.983-.002h10.322z" fill="#FFF"/><path d="M32.125 18.794l-1.896-1.5v-3.407c0-.23-.092-.297-.255-.297H28.24c-.19 0-.305.037-.305.297v1.593l-5.326-4.212c-.205-.163-.332-.205-.478-.205-.145 0-.273.042-.479.205l-9.514 7.526c-.334.264-.24.644.131.644h1.765v9.588c0 .62.247.868.836.868H29.393c.589 0 .836-.248.836-.868v-9.588h1.765c.37 0 .464-.38.13-.644zm-3.38 8.887c0 .429-.22.726-.667.726H16.185c-.446 0-.666-.297-.666-.726v-8.962c0-.52.227-.853.486-1.058l5.719-4.523c.151-.12.28-.172.408-.172.123 0 .256.052.408.172.15.12 5.459 4.318 5.718 4.523.26.205.487.538.487 1.058v8.962z" fill="#F59F00"/><path d="M28.258 17.661l-5.718-4.523c-.152-.12-.285-.172-.408-.172-.128 0-.257.052-.408.172l-5.719 4.523c-.26.205-.486.538-.486 1.058v8.962c0 .429.22.726.666.726h11.893c.447 0 .667-.297.667-.726v-8.962c0-.52-.227-.853-.487-1.058zm-.997 8.674c0 .4-.225.585-.557.585H17.56c-.331 0-.556-.186-.556-.585v-6.997c0-.388.09-.61.365-.829l4.426-3.501a.558.558 0 0 1 .338-.134.56.56 0 0 1 .337.134l4.426 3.501c.275.218.366.441.366.829v6.997z" fill="#FAB808"/><path d="M26.895 18.51c-.155-.124-4.315-3.414-4.426-3.502a.56.56 0 0 0-.337-.134.558.558 0 0 0-.338.134l-4.426 3.501c-.275.218-.365.441-.365.829v6.997c0 .4.225.585.556.585h9.145c.332 0 .557-.186.557-.585v-6.997c0-.388-.091-.61-.366-.829zm-1.118 6.48c0 .32-.178.444-.42.444h-6.45c-.242 0-.42-.124-.42-.444v-5.034c0-.224 0-.403.244-.599.16-.13 3.047-2.41 3.134-2.48a.42.42 0 0 1 .267-.103c.09 0 .18.035.267.104.086.068 2.973 2.35 3.134 2.479.244.196.244.375.244.6v5.033z" fill="#FDCA3D"/><path d="M25.533 19.357c-.161-.13-3.048-2.41-3.134-2.48a.431.431 0 0 0-.267-.103.42.42 0 0 0-.267.104c-.087.068-2.973 2.35-3.134 2.479-.244.196-.244.375-.244.6v5.033c0 .32.178.444.42.444h6.449c.243 0 .42-.124.42-.444v-5.034c0-.224 0-.403-.243-.599zm-1.24 4.287c0 .247-.124.303-.297.303h-3.728c-.173 0-.297-.056-.297-.303v-3.07c0-.163.068-.331.211-.448.076-.062 1.695-1.332 1.754-1.378a.358.358 0 0 1 .196-.072.36.36 0 0 1 .196.072c.058.046 1.677 1.316 1.753 1.378a.575.575 0 0 1 .211.449v3.07z" fill="#FFDE60"/><path d="M22.132 23.947h1.864c.173 0 .296-.056.296-.303v-3.07a.576.576 0 0 0-.21-.448c-.077-.062-1.696-1.332-1.754-1.378a.36.36 0 0 0-.196-.072.359.359 0 0 0-.196.072c-.058.046-1.678 1.316-1.754 1.378a.576.576 0 0 0-.211.449v3.07c0 .246.124.302.297.302h1.864z" fill="#FFF281"/></g></svg>