<svg xmlns="http://www.w3.org/2000/svg" width="53.284" height="53.286" viewBox="0 0 53.284 53.286">
  <g id="montage" transform="translate(-673.858 -431.709)">
    <path id="Pfad_61" data-name="Pfad 61" d="M363.072,838.338l-8.358-8.358a8.919,8.919,0,0,0-1.906-9.793,8.657,8.657,0,0,0-9.628-1.906l4.437,4.272v5.066h-5.064l-4.272-4.439a8.8,8.8,0,0,0,1.9,9.713,8.918,8.918,0,0,0,9.8,1.866l8.36,8.336" transform="translate(337.426 -384.723)" fill="none" stroke="#fecb3f" stroke-linejoin="round" stroke-width="2"/>
    <path id="Pfad_62" data-name="Pfad 62" d="M349,833.731l8.362,8.365a8.924,8.924,0,0,0,11.7,11.7l-4.274-4.272V844.79h4.734l4.272,4.269a8.921,8.921,0,0,0-11.7-11.7L353.737,829" transform="translate(351.499 -370.649)" fill="none" stroke="#fecb3f" stroke-linejoin="round" stroke-width="2"/>
    <path id="Pfad_60" data-name="Pfad 60" d="M354.714,856.168l21.454-21.454a8.921,8.921,0,0,0,9.8-1.906,8.66,8.66,0,0,0,1.9-9.628l-4.269,4.439h-4.734v-5.066l4.274-4.272a8.927,8.927,0,0,0-11.706,11.7l-21.45,21.456a8.921,8.921,0,0,0-11.7,11.7l4.272-4.269h5.064V863.6l-4.437,4.274a8.8,8.8,0,0,0,9.713-1.906A8.9,8.9,0,0,0,354.714,856.168Z" transform="translate(337.426 -384.723)" fill="none" stroke="#000" stroke-linejoin="round" stroke-width="2"/>
  </g>
</svg>
