<svg width="336" height="302" xmlns="http://www.w3.org/2000/svg"><g fill="none" fill-rule="evenodd" stroke-linecap="round"><path d="M125.784 144.923v-3.743c0-4.39 3.557-7.949 7.943-7.949h64.42c4.387 0 7.944 3.56 7.944 7.949v50.572a7.945 7.945 0 0 1-7.944 7.949h-64.42a7.945 7.945 0 0 1-7.943-7.949v-40.167" stroke="#6F6F6E" stroke-width="3.6"/><path d="M173.371 159.56a7.437 7.437 0 0 0-7.434-7.438 7.437 7.437 0 0 0-2.99 14.247v17.613a2.923 2.923 0 0 0 2.922 2.923h.626a2.923 2.923 0 0 0 2.922-2.923v-17.848a7.437 7.437 0 0 0 3.954-6.573zM146.568 133.23v-11.502c0-10.919 8.847-19.772 19.76-19.772 10.914 0 19.761 8.853 19.761 19.772v11.503h11.696v-11.872c0-17.385-14.083-31.478-31.456-31.478-17.374 0-31.457 14.093-31.457 31.478v11.872h11.696zM193.327 199.701v-33.66M193.327 160.868v-5.782" stroke="#6F6F6E" stroke-width="3.6"/><path d="M168.634 273.084s-85.592-44.075-88.716-85.337C76.794 146.485 77.419 79.59 77.419 79.59s31.862-12.816 51.232-24.07c19.366-11.252 33.735-11.74 39.983-11.74 6.248 0 20.617.488 39.985 11.74 19.368 11.254 51.23 24.07 51.23 24.07s.625 66.895-2.498 108.157-88.717 85.337-88.717 85.337z" stroke="#FDCA3F" stroke-width="5.4"/><path d="M168.634 295.559S66.224 242.825 62.488 193.454c-3.737-49.367-2.99-129.404-2.99-129.404s38.123-15.335 61.296-28.8c23.173-13.463 40.365-14.045 47.84-14.045 7.476 0 24.67.582 47.842 14.046 23.172 13.464 61.296 28.8 61.296 28.8s.747 80.036-2.99 129.403c-3.739 49.371-106.148 102.105-106.148 102.105z" stroke="#6F6F6E" stroke-width="5.4"/><path d="M59.437 140.005H20.978M268.866 59.476V20.992M74.787 250.756v-27.951M246.398 280.885v-38.484M59.437 96.21H33.712M14.733 96.21c0-5.244 4.248-9.495 9.49-9.495 5.24 0 9.488 4.25 9.488 9.494 0 5.243-4.248 9.494-9.488 9.494-5.242 0-9.49-4.25-9.49-9.494zM2 140.005c0-5.244 4.248-9.495 9.49-9.495 5.24 0 9.487 4.251 9.487 9.495 0 5.245-4.246 9.495-9.488 9.495-5.241 0-9.49-4.25-9.49-9.495zM65.298 261.29c0-5.243 4.248-9.494 9.49-9.494 5.239 0 9.487 4.251 9.487 9.494 0 5.244-4.248 9.494-9.488 9.494-5.241 0-9.49-4.25-9.49-9.494zM259.378 11.496c0-5.245 4.248-9.494 9.487-9.494 5.242 0 9.49 4.25 9.49 9.494s-4.248 9.494-9.49 9.494c-5.24 0-9.487-4.25-9.487-9.494zM236.91 290.38c0-5.243 4.247-9.494 9.487-9.494 5.242 0 9.49 4.251 9.49 9.494 0 5.244-4.248 9.495-9.49 9.495-5.24 0-9.488-4.251-9.488-9.495zM314.861 222.805h-52.4M324.35 232.302c-5.242 0-9.488-4.25-9.488-9.496 0-5.245 4.246-9.496 9.488-9.496 5.242 0 9.49 4.251 9.49 9.496s-4.248 9.496-9.49 9.496z" stroke="#6F6F6E" stroke-width="3.6"/></g></svg>