<svg id="Layer_1" xmlns="http://www.w3.org/2000/svg" width="92" height="89"><style>.st1{fill:none;stroke:#fdca3f;stroke-width:2;stroke-linecap:round}</style><path d="M44.4 60.4c-.2 0-.4-.1-.6-.2L29.1 45.5c-.4-.3-.4-.9-.1-1.2.3-.4.9-.4 1.2-.1l.1.1 13.9 13.9L63 31.1c.3-.4.8-.5 1.2-.3.4.3.5.8.3 1.2v.1L45.1 60c-.2.2-.4.4-.7.4z" fill-rule="evenodd" clip-rule="evenodd" fill="#fdca3f"/><path class="st1" d="M46 85.6S11.4 69.8 10.1 55c-1.3-14.8-1-38.8-1-38.8S22 11.6 29.8 7.6c7.8-4 13.6-4.2 16.2-4.2 2.5 0 8.3.2 16.2 4.2 7.8 4 20.7 8.6 20.7 8.6s.3 24-1 38.8C80.6 69.8 46 85.6 46 85.6zM75.4 42c0 .7 0 .5-.1 1.2"/><path class="st1" d="M26.2 65.5c-4.8-3.9-8.7-8.3-9.1-12.6l-.3-4.2c-.1-1.4-.1-2.8-.2-4.3-.1-1.4-.1-2.8-.1-4.2-.3-9.5-.2-18.5-.2-18.5s10.4-3.7 16.6-6.9c6.3-3.2 11-3.4 13-3.4s6.7.1 13 3.4 16.6 6.9 16.6 6.9.1 7.9-.1 17.1m-.2 7.5c-.1 2.2-.2 4.5-.4 6.7C73.8 64.8 46 77.5 46 77.5s-6.4-2.9-13.2-7.3"/></svg>