<svg xmlns="http://www.w3.org/2000/svg" width="92" height="89"><path d="M46.8 18.6v2c5.6 0 10.9 2.2 14.9 6.1 8.3 8.2 8.4 21.6.2 29.9l-.1.1-.2.1c-.9.7-4.3 3.9-4.3 10.8v2.3H36.1v-2.4c0-6.9-3.4-10.1-4.2-10.7l-.2-.1c-8.3-8.3-8.3-21.7 0-29.9 4-4 9.4-6.2 15.1-6.2v-2C34 18.6 23.6 29 23.6 41.7c0 6.2 2.5 12.1 6.9 16.5l.2.2c.2.1 3.5 2.8 3.5 9.2V70c0 1.1.9 2 2 2h21.3c1.1 0 1.9-.9 1.9-1.9v-2.5c0-6.4 3.3-9.1 3.6-9.3l.2-.2.1-.1c9-9.1 8.9-23.8-.2-32.7-4.4-4.3-10.2-6.7-16.3-6.7zm-5.8 23c-.3-.4-1-.5-1.4-.2s-.5 1-.2 1.4l.2.2 6.1 6.1v21.4c0 .6.4 1 1 1s1-.4 1-1V49.1l6.1-6.1c.3-.4.2-1.1-.2-1.4-.4-.3-.8-.3-1.2 0l-5.8 5.7-5.6-5.7zm-23.2-2.8H7c-.6 0-1 .4-1 1s.4 1 1 1h10.8c.5 0 1-.4 1-.9v-.1c0-.5-.5-1-1-1zm68.7 0H75.7c-.6 0-1 .4-1 1s.4 1 1 1h10.8c.5 0 1-.4 1-.9v-.1c0-.6-.4-1-1-1zM57.2 75.1H36.5c-.6 0-1 .4-1 1s.4 1 1 1h20.7c.6 0 1-.4 1-1s-.4-1-1-1zm-1.7 4.3H38.2c-.6 0-1 .4-1 1s.4 1 1 1h2.7c.5 3 2.8 6.6 5.9 6.6 3.1 0 5.4-3.6 5.9-6.6h2.9c.5 0 1-.4 1-.9v-.1c0-.6-.5-1-1.1-1zM46.7 86c-1.7 0-3.4-2.4-3.9-4.6h7.7c-.3 2.2-2 4.6-3.8 4.6zm0-72.3c.5 0 1-.4 1-.9V2c0-.6-.4-1-1-1s-1 .4-1 1v10.7c0 .6.4 1 1 1zm-21.2 6.4c.2.2.4.3.7.3.3 0 .5-.1.7-.3.4-.4.4-1 0-1.4l-7.6-7.6c-.4-.3-1.1-.2-1.4.2-.3.4-.3.8 0 1.2l7.6 7.6zm41.7.3c.3 0 .5-.1.7-.3l7.6-7.6c.3-.4.2-1.1-.2-1.4-.4-.3-.8-.3-1.2 0l-7.6 7.6c-.4.4-.4 1 0 1.4.2.2.4.3.7.3z" fill="#fecb41"/><path d="M40 25.3c-6.2 2.1-10.3 8-10.1 14.5" fill="none" stroke="#fecb41" stroke-width="2" stroke-linecap="round"/><path d="M44.5 80.8c.2 1.5 1 2.7 2.3 3.5" fill="none" stroke="#fecb41" stroke-linecap="round"/></svg>