<svg width="92" height="89" xmlns="http://www.w3.org/2000/svg"><g transform="translate(0 -1)" fill="none" fill-rule="evenodd"><path stroke="#FDCA40" stroke-width="2" stroke-linecap="round" d="M79.72 32.16v-17.6M71.3 24.14V14.55M79.59 14.28h-8.15a2.45 2.45 0 0 1-1-.2 2.39 2.39 0 0 1-.79-.53 2.57 2.57 0 0 1-.54-.8 2.45 2.45 0 0 1-.2-1 2.44 2.44 0 0 1 .2-1 2.57 2.57 0 0 1 .54-.8 2.39 2.39 0 0 1 .79-.53 2.45 2.45 0 0 1 1-.2h8.15a2.44 2.44 0 0 1 1 .2c.298.124.57.304.8.53.229.23.412.502.54.8.128.318.193.657.19 1a2.63 2.63 0 0 1-.19 1 2.57 2.57 0 0 1-.54.8 2.54 2.54 0 0 1-.8.53 2.44 2.44 0 0 1-1 .2z"/><path d="M12.73 89a1 1 0 0 1-1-1V45a1 1 0 0 1 2 0v43a1 1 0 0 1-1 1zM79.18 89a1 1 0 0 1-1-1V45a1 1 0 0 1 2 0v43a1 1 0 0 1-1 1z" fill="#FECB41" fill-rule="nonzero"/><path d="M1 44a1 1 0 0 1-.67-1.74l45-41a1 1 0 0 1 1.35 0l45 41a1.002 1.002 0 0 1-1.35 1.48L46 3.35 1.67 43.78A1 1 0 0 1 1 44zM57.11 54.53a1 1 0 0 1-.71-.29A14.68 14.68 0 0 0 46 49.91a14.68 14.68 0 0 0-10.45 4.33 1 1 0 0 1-1.41-1.41A16.67 16.67 0 0 1 46 47.91a16.67 16.67 0 0 1 11.86 4.92 1 1 0 0 1 0 1.42 1 1 0 0 1-.75.28z" fill="#FECB41" fill-rule="nonzero"/><path d="M61.57 48.49a1 1 0 0 1-.71-.29c-8.247-8.242-21.613-8.242-29.86 0a1 1 0 0 1-1.41-1.41c9.024-8.998 23.626-8.998 32.65 0a1 1 0 0 1 0 1.42 1 1 0 0 1-.67.28zM39.26 60.57a1 1 0 0 1-1-1 1 1 0 0 1 .3-.72c4.09-4.079 10.71-4.079 14.8 0a1 1 0 0 1-1.41 1.41 8.5 8.5 0 0 0-12 0 1 1 0 0 1-.69.31z" fill="#FECB41" fill-rule="nonzero"/><path d="M57.11 54.53a1 1 0 0 1-.71-.29A14.68 14.68 0 0 0 46 49.91a14.68 14.68 0 0 0-10.45 4.33 1 1 0 0 1-1.41-1.41A16.65 16.65 0 0 1 46 47.91a16.67 16.67 0 0 1 11.86 4.92 1 1 0 0 1 0 1.42 1 1 0 0 1-.75.28zM52.65 60.57a1 1 0 0 1-.71-.29 8.5 8.5 0 0 0-12 0A1 1 0 1 1 38.42 59l.11-.11c4.095-4.068 10.705-4.068 14.8 0a1 1 0 0 1 0 1.42 1 1 0 0 1-.68.26z" fill="#FECB41" fill-rule="nonzero"/><circle fill="#FECB41" fill-rule="nonzero" cx="45.96" cy="67.84" r="3.16"/><path d="M27.75 88.06h-7.92M79.18 88.06H32.29" stroke="#FDCA40" stroke-width="2" stroke-linecap="round"/><path stroke="#FECB41" stroke-width="2" stroke-linecap="round" d="M14.09 37.93L45.84 9.15l11.54 10.84M7.81 43.81l3.73-3.4"/></g></svg>