<?xml version="1.0" encoding="utf-8"?>
<!-- Generator: Adobe Illustrator 21.0.0, SVG Export Plug-In . SVG Version: 6.00 Build 0)  -->
<!DOCTYPE svg PUBLIC "-//W3C//DTD SVG 1.1//EN" "http://www.w3.org/Graphics/SVG/1.1/DTD/svg11.dtd">
<svg version="1.1" id="Layer_1" xmlns="http://www.w3.org/2000/svg" xmlns:xlink="http://www.w3.org/1999/xlink" x="0px" y="0px"
	 width="50px" height="50px" viewBox="0 0 50 50" style="enable-background:new 0 0 50 50;" xml:space="preserve">
<style type="text/css">
	.st0{fill:#FECB3F;}
</style>
<title>social-twitter</title>
<g>
	<path class="st0" d="M25,0C11.2,0,0,11.2,0,25s11.2,25,25,25s25-11.2,25-25S38.8,0,25,0z M34.5,34c-0.6,0.6-1.3,0.9-2.1,1.1
		c-1.6,0.4-3.2,0.1-4.7-0.5c-4.3-1.5-7.9-4.7-10.5-8.5c-1.1-1.6-2-3.3-2.4-5.2c-0.4-1.8-0.2-6.4,2.6-6.3c0.6,0,1.2,0.3,1.7,0.6
		c1.1,0.7,2.1,1.6,2.8,2.6c0.5,0.6,0.9,1.4,0.6,2.1c-0.3,0.8-1.4,1.2-1.6,2c-0.1,0.5,0.1,0.9,0.4,1.3c1.4,2.3,3.3,4.2,5.7,5.6
		c0.2,0.1,0.5,0.3,0.8,0.2c0,0,0,0,0.1,0c0.3,0,0.5-0.2,0.7-0.5c0.5-0.4,1-0.8,1.6-1.1c0.2-0.1,0.4-0.2,0.6-0.2s0.4,0.1,0.6,0.2
		c1,0.6,1.8,1.4,2.7,2.2c0.5,0.6,1.1,1.2,1.2,2C35.4,32.6,35.1,33.5,34.5,34z"/>
</g>
</svg>
