<svg xmlns="http://www.w3.org/2000/svg" xmlns:xlink="http://www.w3.org/1999/xlink" width="47" height="56" viewBox="0 0 47 56"><defs><clipPath id="b"><rect width="47" height="56"/></clipPath></defs><g id="a" clip-path="url(#b)"><path d="M44.918,10.391a2.344,2.344,0,0,1,.688,1.659v40.6A2.348,2.348,0,0,1,43.259,55H3.348A2.348,2.348,0,0,1,1,52.649V3.348A2.348,2.348,0,0,1,3.348,1H34.556a2.346,2.346,0,0,1,1.659.688Z" fill="none" stroke="#000" stroke-linecap="round" stroke-linejoin="round" stroke-width="2"/><path d="M8.825,17.48l2.542,2.54a1.173,1.173,0,0,0,1.66,0,1.1,1.1,0,0,0,.124-.146l5.065-7.09" transform="translate(0.392 0.59)" fill="none" stroke="#fecb3f" stroke-linecap="round" stroke-linejoin="round" stroke-width="2"/><path d="M25.593,16.65h9.39" transform="translate(1.232 0.784)" fill="none" stroke="#000" stroke-linecap="round" stroke-linejoin="round" stroke-width="2"/><path d="M8.825,28.658l2.542,2.54a1.173,1.173,0,0,0,1.784-.145l5.065-7.09" transform="translate(0.392 1.15)" fill="none" stroke="#fecb3f" stroke-linecap="round" stroke-linejoin="round" stroke-width="2"/><path d="M25.593,27.828h9.39" transform="translate(1.232 1.344)" fill="none" stroke="#000" stroke-linecap="round" stroke-linejoin="round" stroke-width="2"/><path d="M8.825,39.837l2.542,2.54a1.174,1.174,0,0,0,1.66,0,1.1,1.1,0,0,0,.124-.146l5.065-7.09" transform="translate(0.392 1.71)" fill="none" stroke="#fecb3f" stroke-linecap="round" stroke-linejoin="round" stroke-width="2"/><path d="M25.593,39.007h9.39" transform="translate(1.232 1.904)" fill="none" stroke="#000" stroke-linecap="round" stroke-linejoin="round" stroke-width="2"/></g></svg>